<?xml version="1.0" encoding="UTF-8" ?>
<!DOCTYPE svg PUBLIC "-//W3C//DTD SVG 1.1//EN" "http://www.w3.org/Graphics/SVG/1.1/DTD/svg11.dtd">
<svg width="750" height="397" viewBox="122 312 750 397" version="1.1" xmlns="http://www.w3.org/2000/svg">
<g id="#8c1f2eff">
<path fill="#8c1f2e" opacity="1.00" d=" M 185.52 362.64 C 207.57 343.91 236.13 333.05 265.07 332.52 C 293.80 331.75 322.66 341.12 345.47 358.62 C 371.76 378.50 389.85 408.86 394.62 441.49 C 384.98 441.51 375.33 441.50 365.69 441.50 C 360.82 416.44 345.96 393.55 325.10 378.85 C 306.40 365.48 282.92 358.97 260.00 360.93 C 237.19 362.69 215.22 372.86 198.90 388.86 C 182.04 405.19 171.14 427.57 168.97 450.97 C 166.85 472.39 171.94 494.44 183.25 512.76 C 193.52 529.52 208.81 543.16 226.68 551.36 C 244.09 559.42 263.88 562.17 282.84 559.28 C 311.27 555.16 337.28 537.79 352.35 513.39 C 362.51 497.22 367.78 478.09 367.50 459.01 C 453.33 458.99 539.16 459.00 625.00 459.00 C 624.78 475.75 628.76 492.55 636.69 507.31 C 645.89 524.60 660.33 539.05 677.61 548.27 C 695.22 557.75 715.74 561.63 735.60 559.38 C 764.02 556.33 790.57 540.16 806.61 516.55 C 820.12 497.03 826.16 472.54 823.33 448.97 C 820.15 420.25 803.52 393.51 779.42 377.63 C 759.69 364.39 735.10 358.67 711.54 361.84 C 683.08 365.38 656.69 382.10 641.14 406.17 C 634.13 416.87 629.27 428.95 626.80 441.50 C 617.16 441.50 607.52 441.51 597.88 441.49 C 602.87 406.78 623.00 374.65 651.97 354.92 C 681.58 334.32 720.12 327.45 755.09 336.18 C 786.21 343.72 814.01 363.64 831.40 390.51 C 845.20 411.57 852.44 436.79 852.13 461.96 C 852.12 504.14 852.14 546.32 852.12 588.50 C 842.75 588.51 833.38 588.49 824.01 588.51 C 823.98 572.62 824.01 556.73 824.00 540.84 C 802.41 567.31 770.17 585.06 736.03 587.99 C 701.35 591.31 665.56 579.66 639.60 556.41 C 617.36 536.83 602.36 509.30 597.94 480.00 C 568.79 480.01 539.64 479.98 510.49 480.02 C 510.51 509.84 510.50 539.67 510.50 569.50 C 501.16 569.50 491.83 569.50 482.50 569.50 C 482.50 539.67 482.49 509.84 482.50 480.01 C 453.67 479.98 424.84 480.01 396.00 480.00 C 395.98 508.00 396.03 536.00 395.98 564.00 C 395.54 598.49 379.85 632.22 354.34 655.33 C 330.57 677.23 298.31 689.67 265.96 689.00 C 231.63 688.67 197.79 673.71 174.42 648.57 C 162.90 636.32 153.88 621.76 148.00 606.01 C 158.31 605.99 168.62 606.00 178.92 606.00 C 193.25 634.30 221.69 654.92 253.14 659.39 C 276.56 662.96 301.20 657.90 321.22 645.20 C 346.54 629.46 364.03 601.76 366.94 572.04 C 367.95 561.80 367.32 551.50 367.50 541.23 C 345.77 568.29 312.56 585.66 277.95 588.13 C 244.82 590.85 210.84 580.01 185.50 558.48 C 170.61 545.96 158.63 530.00 150.81 512.19 C 140.18 488.18 137.33 460.87 142.51 435.14 C 148.09 407.03 163.59 381.06 185.52 362.64 Z" />
<path fill="#8c1f2e" opacity="1.00" d=" M 482.50 347.00 C 491.83 347.00 501.17 347.00 510.50 347.00 C 510.50 378.50 510.51 410.00 510.50 441.50 C 501.16 441.50 491.83 441.50 482.50 441.50 C 482.49 410.00 482.50 378.50 482.50 347.00 Z" />
</g>
<g id="#c9a0a5ff">
<path fill="#c9a0a5" opacity="1.00" d=" M 752.47 454.60 C 758.81 452.98 765.90 454.77 770.66 459.28 C 774.99 463.22 777.37 469.18 776.95 475.04 C 776.57 482.07 772.06 488.68 765.65 491.61 C 759.40 494.62 751.58 493.94 745.93 489.93 C 739.95 485.82 736.61 478.25 737.69 471.07 C 738.64 463.23 744.80 456.41 752.47 454.60 Z" />
</g>
</svg>
