<?xml version="1.0" encoding="UTF-8" ?>
<!DOCTYPE svg PUBLIC "-//W3C//DTD SVG 1.1//EN" "http://www.w3.org/Graphics/SVG/1.1/DTD/svg11.dtd">
<svg width="1080pt" height="1080pt" viewBox="0 0 1080 1080" version="1.1" xmlns="http://www.w3.org/2000/svg">
<g id="#000000ff">
</g>
<g id="#ffffffff">
<path fill="#ffffff" opacity="1.00" d=" M 909.53 357.76 C 918.82 356.16 928.78 356.53 937.44 360.56 C 948.71 364.73 957.42 375.16 959.70 386.94 C 961.07 394.89 960.35 403.39 956.68 410.65 C 951.90 420.41 942.48 427.63 931.98 430.21 C 921.87 432.81 910.97 432.26 901.20 428.58 C 888.99 423.81 879.39 412.31 878.13 399.10 C 876.75 388.71 879.81 377.68 887.09 370.02 C 892.74 363.30 901.16 359.70 909.53 357.76 Z" />
<path fill="#ffffff" opacity="1.00" d=" M 503.58 386.84 C 516.18 383.04 529.75 380.28 542.80 383.54 C 559.52 387.90 574.21 397.37 589.04 405.89 C 598.42 411.31 608.24 415.96 617.44 421.68 C 631.16 431.07 646.81 439.73 654.61 455.14 C 658.85 464.13 662.45 473.91 661.89 484.01 C 661.98 515.36 662.14 546.71 661.33 578.07 C 661.19 584.23 660.68 590.56 658.20 596.28 C 652.13 611.48 639.93 623.40 626.48 632.28 C 619.25 636.56 612.35 641.73 604.28 644.30 C 599.12 647.10 594.35 650.76 588.71 652.55 C 587.06 650.62 584.00 647.86 586.23 645.28 C 594.59 634.28 599.31 620.79 600.54 607.09 C 604.35 573.22 603.88 539.08 603.55 505.05 C 603.72 498.17 601.13 491.37 596.91 486.01 C 591.96 480.61 586.56 475.48 580.23 471.72 C 551.83 454.90 523.15 438.51 495.37 420.68 C 485.30 414.97 473.33 413.75 461.95 413.85 C 459.01 413.69 458.09 410.23 457.15 407.99 C 464.03 403.54 471.82 400.78 479.13 397.12 C 487.36 393.89 495.27 389.90 503.58 386.84 Z" />
<path fill="#ffffff" opacity="1.00" d=" M 184.62 396.50 C 213.95 387.73 245.83 387.86 275.15 396.60 C 293.81 402.84 311.11 414.40 322.21 430.85 C 330.87 443.89 334.94 459.49 335.81 475.00 C 310.85 475.00 285.90 475.00 260.95 475.00 C 260.30 470.17 259.61 465.21 257.12 460.93 C 252.16 451.86 241.96 446.77 231.94 445.85 C 222.87 444.84 212.94 446.59 205.95 452.81 C 200.17 458.16 198.77 466.58 199.25 474.10 C 199.89 482.35 205.77 489.24 212.78 493.13 C 231.26 503.64 252.15 508.44 271.80 516.19 C 283.87 520.94 296.14 525.61 307.03 532.79 C 320.20 542.35 332.22 555.03 336.53 571.12 C 341.36 588.82 340.06 608.14 333.35 625.17 C 328.32 637.75 319.98 648.87 309.55 657.48 C 301.64 663.73 292.86 668.90 283.51 672.68 C 257.56 682.65 228.73 682.81 201.76 677.23 C 186.70 674.09 172.09 668.31 159.55 659.31 C 148.12 650.88 138.28 639.90 132.41 626.87 C 127.59 616.25 125.40 604.61 125.01 593.00 C 149.58 593.00 174.16 592.98 198.73 593.02 C 199.77 603.61 204.41 614.52 213.77 620.30 C 222.15 625.35 232.40 626.09 241.94 625.06 C 251.03 623.82 260.36 619.12 264.46 610.52 C 268.60 601.69 267.94 590.16 261.26 582.73 C 252.36 573.12 239.69 568.57 227.58 564.51 C 209.86 558.90 191.98 553.56 174.94 546.03 C 161.47 540.31 149.19 531.46 140.14 519.89 C 128.94 506.78 125.36 488.87 125.91 472.04 C 126.19 454.06 131.96 435.64 144.28 422.24 C 155.04 410.15 169.37 401.66 184.62 396.50 Z" />
<path fill="#ffffff" opacity="1.00" d=" M 684.34 392.01 C 745.99 391.99 807.64 392.00 869.29 392.00 C 869.28 410.42 869.29 428.83 869.28 447.25 C 830.69 447.26 792.09 447.23 753.50 447.26 C 753.52 467.26 753.50 487.25 753.51 507.25 C 782.38 507.25 811.26 507.25 840.14 507.25 C 840.15 525.16 840.14 543.08 840.14 561.00 C 811.26 561.00 782.38 561.00 753.51 561.00 C 753.51 599.33 753.50 637.66 753.51 675.99 C 730.45 676.01 707.40 676.01 684.34 675.99 C 684.35 581.33 684.35 486.67 684.34 392.01 Z" />
<path fill="#ffffff" opacity="1.00" d=" M 884.29 682.99 C 884.31 607.16 884.28 531.33 884.31 455.49 C 907.51 455.51 930.71 455.49 953.91 455.50 C 953.91 531.33 953.90 607.17 953.91 683.00 C 930.70 683.00 907.50 683.00 884.29 682.99 Z" />
</g>
<g id="#00c6a5ff">
<path fill="#00c6a5" opacity="1.00" d=" M 398.45 442.52 C 407.18 436.92 416.07 431.59 424.76 425.93 C 425.79 427.78 426.78 429.66 427.71 431.58 C 420.53 438.92 415.65 448.70 414.92 459.00 C 412.16 473.18 413.94 487.69 412.72 501.99 C 412.55 515.32 412.23 528.68 413.20 541.99 C 413.17 552.82 413.07 563.96 416.71 574.32 C 421.66 587.17 429.85 598.76 440.02 608.02 C 446.45 614.43 454.30 619.07 461.55 624.45 C 469.37 629.78 477.69 634.32 485.79 639.19 C 494.94 644.46 504.00 649.94 513.71 654.15 C 519.80 656.69 525.38 660.55 531.94 661.88 C 538.55 663.97 545.58 664.11 552.43 663.40 C 553.89 665.92 555.27 668.49 556.60 671.09 C 540.73 678.68 524.73 686.00 508.28 692.22 C 497.03 695.56 484.98 694.83 473.62 692.50 C 463.81 689.89 454.08 686.65 445.19 681.70 C 437.48 678.09 430.92 672.54 423.55 668.38 C 408.12 659.80 392.54 651.31 378.50 640.55 C 372.05 636.09 366.38 630.49 361.99 623.98 C 357.42 616.74 357.08 607.94 356.46 599.66 C 355.90 591.81 356.82 583.91 355.80 576.09 C 354.96 566.41 355.73 556.67 354.70 547.01 C 354.77 529.65 354.50 512.29 354.59 494.93 C 355.06 482.21 362.43 471.01 371.24 462.33 C 379.61 454.80 389.56 449.37 398.45 442.52 Z" />
</g>
</svg>
