<?xml version="1.0" encoding="UTF-8" ?>
<!DOCTYPE svg PUBLIC "-//W3C//DTD SVG 1.1//EN" "http://www.w3.org/Graphics/SVG/1.1/DTD/svg11.dtd">
<svg width="1080pt" height="1080pt" viewBox="0 0 1080 1080" version="1.1" xmlns="http://www.w3.org/2000/svg">
<g id="#8c1f2eff">
<path fill="#8c1f2e" opacity="1.00" d=" M 915.45 357.47 C 934.03 355.22 955.24 366.76 959.03 386.04 C 963.06 401.29 955.67 418.26 941.99 425.97 C 924.73 435.23 901.13 433.11 887.23 418.77 C 876.41 406.40 874.61 386.23 885.07 373.05 C 891.93 363.18 903.79 358.33 915.45 357.47 Z" />
<path fill="#8c1f2e" opacity="1.00" d=" M 497.13 390.11 C 510.09 384.34 524.58 382.11 538.69 383.33 C 559.44 387.20 576.70 400.27 595.03 409.92 C 610.53 417.90 625.52 426.96 639.25 437.73 C 652.93 448.40 661.22 465.61 660.98 482.97 C 661.02 514.65 661.14 546.34 660.91 578.02 C 661.23 596.70 649.74 613.33 635.66 624.64 C 621.87 636.60 604.82 643.41 589.14 652.36 C 588.48 650.87 587.17 647.90 586.51 646.41 C 593.49 636.28 598.68 624.79 600.41 612.54 C 604.89 577.21 604.14 541.50 603.96 505.97 C 604.62 496.46 599.60 487.50 592.77 481.24 C 586.86 475.95 580.33 471.36 573.35 467.59 C 553.40 455.95 533.79 443.75 513.81 432.16 C 503.97 426.70 495.37 418.22 483.99 416.06 C 476.54 413.89 468.69 414.24 461.04 413.73 C 460.27 412.30 458.72 409.45 457.94 408.02 C 470.93 401.88 483.74 395.37 497.13 390.11 Z" />
<path fill="#8c1f2e" opacity="1.00" d=" M 160.09 409.12 C 181.31 393.76 208.52 390.77 233.96 390.21 C 253.36 391.10 273.18 394.42 290.54 403.55 C 307.85 412.80 323.03 427.47 329.64 446.29 C 333.42 455.37 334.41 465.25 335.47 474.95 C 310.82 475.02 286.17 475.08 261.52 474.93 C 260.28 467.32 257.77 459.40 252.08 453.91 C 238.68 442.72 216.10 441.25 203.69 454.69 C 198.66 460.77 198.71 469.43 199.16 476.88 C 201.56 487.85 212.42 493.84 221.86 498.14 C 249.21 510.27 279.22 516.25 304.96 532.03 C 321.11 542.46 334.84 558.61 337.80 578.11 C 344.30 610.97 328.76 646.77 299.93 663.90 C 284.77 673.70 266.86 678.56 248.96 679.80 C 228.91 681.81 208.49 679.46 189.23 673.64 C 165.55 666.15 143.35 650.16 133.00 627.01 C 127.73 616.49 126.42 604.56 125.04 593.03 C 149.41 593.06 173.80 592.70 198.17 593.25 C 199.81 605.38 206.02 618.33 218.15 622.84 C 232.28 628.20 249.98 627.42 261.19 616.21 C 269.91 605.98 269.38 588.90 259.06 579.94 C 244.00 567.33 224.07 563.43 205.97 557.19 C 186.91 550.49 166.53 544.67 151.15 530.86 C 139.47 521.36 130.59 507.88 128.13 492.88 C 124.23 473.84 126.10 453.39 134.98 435.96 C 141.07 425.18 149.54 415.69 160.09 409.12 Z" />
<path fill="#8c1f2e" opacity="1.00" d=" M 685.02 392.02 C 746.34 391.99 807.65 391.98 868.97 392.02 C 869.04 410.34 869.03 428.66 868.97 446.98 C 830.32 447.06 791.68 446.94 753.04 447.02 C 753.00 467.23 752.74 487.46 753.33 507.67 C 782.20 508.40 811.09 507.79 839.97 508.02 C 840.03 525.67 840.04 543.33 839.98 560.99 C 810.98 561.05 782.00 560.94 753.01 561.02 C 752.94 599.34 753.06 637.66 752.98 675.98 C 730.32 676.02 707.66 676.03 685.01 675.98 C 684.99 581.33 684.98 486.67 685.02 392.02 Z" />
<path fill="#8c1f2e" opacity="1.00" d=" M 374.91 459.91 C 390.75 447.71 407.62 436.97 424.78 426.73 C 425.50 428.11 426.23 429.49 426.95 430.88 C 422.56 436.76 418.14 442.94 416.11 450.09 C 412.80 463.07 413.14 476.56 412.55 489.83 C 411.52 513.51 411.78 537.24 413.27 560.89 C 414.83 577.17 423.60 591.71 434.59 603.40 C 445.02 615.10 458.65 622.94 471.60 631.43 C 488.91 641.81 506.39 652.06 524.96 660.07 C 533.67 664.03 543.45 663.87 552.81 664.45 C 553.85 666.60 554.89 668.77 555.94 670.95 C 540.82 678.03 525.52 684.72 510.10 691.10 C 492.49 696.26 473.34 693.73 456.72 686.35 C 443.98 681.68 433.15 673.34 421.57 666.51 C 404.66 657.20 387.52 647.82 372.80 635.20 C 364.66 628.48 358.13 618.91 357.79 608.06 C 355.40 571.41 356.69 534.66 355.05 497.99 C 355.04 482.90 363.47 469.20 374.91 459.91 Z" />
<path fill="#8c1f2e" opacity="1.00" d=" M 885.02 456.01 C 908.00 455.98 930.99 455.96 953.98 456.02 C 954.01 531.67 954.01 607.33 953.98 682.99 C 930.99 683.01 908.00 683.03 885.02 682.98 C 884.99 607.32 884.99 531.67 885.02 456.01 Z" />
</g>
</svg>
